<?xml version="1.0" encoding="UTF-8"?>
<svg id="Layer_2" data-name="Layer 2" xmlns="http://www.w3.org/2000/svg" viewBox="0 0 121.98 57.14">
  <defs>
    <style>
      .cls-1 {
        font-family: GasoekOne-Regular, 'Gasoek One';
        font-size: 28.25px;
      }

      .cls-1, .cls-2 {
        fill: #fff;
      }

      .cls-2 {
        stroke-width: 0px;
      }
    </style>
  </defs>
  <g id="Layer_1-2" data-name="Layer 1">
    <g>
      <text class="cls-1" transform="translate(0 24.86)"><tspan x="0" y="0">Serial</tspan><tspan x="0" y="25.89">Cleaner</tspan></text>
      <g>
        <ellipse class="cls-2" cx="103.67" cy="9.92" rx="1.53" ry="1.5"/>
        <path class="cls-2" d="M114.34,20.96c0,3.91-3.17,7.09-7.08,7.09s-7.09-3.18-7.09-7.09,3.17-7.09,7.09-7.09,7.08,3.18,7.08,7.09ZM105.69,15.75c.05.37.4.55.92.49,2.3-.29,4.4,1.18,4.94,3.45.12.51.41.77.78.69.37-.09.52-.42.41-.95-.54-2.77-3.46-4.82-6.26-4.4-.58.09-.84.33-.79.73Z"/>
        <path class="cls-2" d="M117.78,8.58c0,2.13-1.73,3.86-3.86,3.86s-3.86-1.73-3.86-3.86,1.73-3.86,3.86-3.86,3.86,1.72,3.86,3.86ZM114.57,11.14c-.02-.2-.2-.3-.48-.27-1.23.12-2.32-.7-2.56-1.91-.06-.27-.21-.42-.4-.38-.2.04-.28.21-.23.5.24,1.48,1.76,2.61,3.25,2.43.31-.04.45-.16.43-.37Z"/>
      </g>
    </g>
  </g>
</svg>