<?xml version="1.0" encoding="UTF-8"?>
<svg id="Layer_2" data-name="Layer 2" xmlns="http://www.w3.org/2000/svg" viewBox="0 0 424.84 199.01">
  <defs>
    <style>
      .cls-1 {
        stroke-width: 0px;
      }

      .cls-1, .cls-2 {
        fill: #fff;
      }

      .cls-2 {
        font-family: GasoekOne-Regular, 'Gasoek One';
        font-size: 98.39px;
      }
    </style>
  </defs>
  <g id="Layer_1-2" data-name="Layer 1">
    <g>
      <text class="cls-2" transform="translate(0 86.58)"><tspan x="0" y="0">Serial</tspan><tspan x="0" y="90.19">Cleaner</tspan></text>
      <g>
        <ellipse class="cls-1" cx="361.08" cy="34.55" rx="5.33" ry="5.21"/>
        <path class="cls-1" d="M398.25,72.99c0,13.62-11.04,24.69-24.66,24.69s-24.69-11.08-24.69-24.69,11.04-24.69,24.69-24.69,24.66,11.08,24.66,24.69ZM368.12,54.85c.18,1.28,1.38,1.92,3.19,1.69,8.02-1,15.34,4.11,17.19,12.01.42,1.78,1.44,2.69,2.71,2.39,1.3-.31,1.79-1.45,1.43-3.31-1.88-9.63-12.05-16.78-21.79-15.31-2.02.3-2.93,1.15-2.74,2.54Z"/>
        <path class="cls-1" d="M410.23,29.87c0,7.42-6.03,13.44-13.44,13.44s-13.44-6.03-13.44-13.44,6.03-13.44,13.44-13.44,13.44,5.99,13.44,13.44ZM399.04,38.8c-.07-.68-.7-1.04-1.67-.95-4.27.4-8.07-2.43-8.93-6.65-.19-.95-.72-1.45-1.4-1.31-.69.14-.98.74-.81,1.74.84,5.14,6.13,9.1,11.32,8.47,1.08-.13,1.57-.56,1.49-1.3Z"/>
      </g>
    </g>
  </g>
</svg>